# xmcd CD database file
#
# Track frame offsets:
#	150
#	21481
#	37861
#	54013
#	68593
#	75683
#	84503
#	98981
#	107741
#	117732
#	139604
#	157604
#	162365
#	184400
#	234468
#
# Disc length: 3552 seconds
#
# Revision: 1
# Processed by: cddbd v1.5.2PL0 Copyright (c) Steve Scherf et al.
# Submitted via: CDex 1.70beta2
#
DISCID=b70dde0f
DTITLE=Ludwig van Beethoven - Complete works of Ludwig van Beethoven (by am@do classics) - CD 14
DYEAR=2007
DGENRE=Classical
TTITLE0=The ruins of Athens, Op. 113\01 - Overture
TTITLE1=The ruins of Athens, Op. 113\02 - Choir: Daughter of mighty Zeus
TTITLE2=The ruins of Athens, Op. 113\03 - Duet: Suffer bodage without fault
TTITLE3=The ruins of Athens, Op. 113\04 - Choir of the dervishes: You've carried the moon in your sleeve's folds
TTITLE4=The ruins of Athens, Op. 113\05 - Turkish march
TTITLE5=The ruins of Athens, Op. 113\06 - Music behind the scenery: The folk promenades already in best dress  
TTITLE6=The ruins of Athens, Op. 113\07 - March and choir: Decorate the altars
TTITLE7=The ruins of Athens, Op. 113\08 - Recitative: With brisk joy that never grows cold
TTITLE8=The ruins of Athens, Op. 113\09 - Choir: We hit susceptible hearts in the chest
TTITLE9=The ruins of Athens, Op. 113\10 - Aria with choir: Wants our genius to grant one more wish
TTITLE10=The ruins of Athens, Op. 113\11 - Choir: Hail to our king! Hail!
TTITLE11=From: Leonore Prohaska, WoO 96\1 - Melodrama: Thou, whom she's devoted
TTITLE12=From: Leonore Prohaska, WoO 96\2 - Funeral march
TTITLE13=Overture in C major, Op. 24 (Consecration of the house)
TTITLE14=Wo sich die Pulse jugendlich jagen, WoO 98 (Consecration of the house)
EXTD=YEAR: 2007
EXTT0=
EXTT1=
EXTT2=
EXTT3=
EXTT4=
EXTT5=
EXTT6=
EXTT7=
EXTT8=
EXTT9=
EXTT10=
EXTT11=
EXTT12=
EXTT13=
EXTT14=
PLAYORDER=
